<?xml version="1.0" standalone="no"?>
<!DOCTYPE svg PUBLIC "-//W3C//DTD SVG 20010904//EN"
 "http://www.w3.org/TR/2001/REC-SVG-20010904/DTD/svg10.dtd">
<svg version="1.0" xmlns="http://www.w3.org/2000/svg"
 width="16.000000pt" height="16.000000pt" viewBox="0 0 16.000000 16.000000"
 preserveAspectRatio="xMidYMid meet">
<metadata>
Created by potrace 1.11, written by Peter Selinger 2001-2013
</metadata>
<g transform="translate(0.000000,16.000000) scale(0.000800,-0.000800)"
fill="#000000" stroke="none">
<path d="M9888 17855 c-2 -1 -39 -5 -83 -9 -68 -5 -133 -15 -254 -40 -141 -30
-342 -120 -591 -266 -69 -40 -192 -112 -275 -160 -82 -47 -226 -131 -320 -185
-151 -88 -232 -134 -323 -185 -15 -9 -70 -41 -122 -72 -52 -30 -113 -66 -135
-78 -22 -12 -77 -44 -123 -71 -45 -27 -85 -49 -88 -49 -3 0 -30 -16 -60 -35
-30 -19 -57 -35 -59 -35 -3 0 -24 -11 -46 -26 -22 -14 -55 -34 -74 -44 -19
-10 -134 -77 -257 -148 -123 -71 -385 -222 -583 -336 -198 -114 -421 -243
-495 -286 -74 -43 -234 -135 -355 -205 -121 -70 -249 -144 -285 -165 -74 -43
-544 -315 -611 -353 -24 -13 -84 -48 -134 -77 -49 -29 -106 -61 -125 -72 -62
-35 -225 -129 -240 -138 -8 -5 -37 -22 -65 -38 -517 -297 -531 -306 -696 -471
-169 -170 -298 -362 -403 -602 -52 -120 -107 -321 -124 -455 -9 -78 -9 -6433
1 -6504 18 -137 42 -236 88 -367 110 -313 356 -657 602 -842 90 -67 143 -100
407 -250 52 -30 147 -84 210 -121 63 -37 135 -78 160 -92 25 -14 91 -53 148
-87 57 -33 105 -61 107 -61 2 0 52 -29 112 -64 125 -74 996 -577 1063 -614 25
-14 61 -35 80 -47 19 -12 55 -33 80 -47 39 -22 207 -118 705 -406 194 -112
246 -142 285 -164 19 -11 60 -35 90 -53 30 -18 75 -44 100 -57 25 -14 126 -72
225 -130 99 -58 200 -116 225 -130 25 -14 187 -108 360 -208 326 -189 356
-206 416 -240 19 -11 95 -55 167 -97 73 -42 146 -84 162 -93 82 -47 240 -138
320 -185 300 -177 569 -249 925 -249 167 0 369 23 466 55 17 5 40 11 50 13 85
17 380 151 446 203 7 6 38 24 68 40 30 17 96 54 145 83 97 57 128 74 220 127
33 19 76 43 95 55 19 11 114 65 210 120 96 56 187 109 202 119 15 11 29 19 32
19 2 0 103 57 223 126 120 70 277 161 348 202 72 41 198 115 282 163 84 49
155 89 158 89 3 0 18 8 33 19 33 22 201 121 206 121 2 0 51 28 108 61 56 34
119 71 138 82 19 11 123 70 230 132 107 62 211 121 230 132 19 11 193 111 385
223 193 111 384 221 425 245 118 68 131 76 262 151 270 157 635 368 677 391
24 14 104 61 178 104 75 43 137 79 138 79 2 0 39 21 82 46 43 26 92 55 109 65
17 9 42 23 55 31 134 77 339 260 446 398 213 274 352 603 392 925 11 93 8
6446 -3 6510 -62 339 -178 607 -374 865 -70 91 -232 258 -297 306 -22 16 -42
31 -45 34 -10 10 -98 70 -103 70 -3 0 -63 34 -133 76 -71 42 -147 86 -170 99
-76 42 -519 298 -554 320 -19 12 -42 24 -50 28 -8 4 -33 18 -55 31 -22 14 -51
31 -65 38 -71 39 -699 403 -722 419 -15 10 -29 19 -32 19 -3 0 -40 20 -82 45
-41 25 -78 45 -81 45 -3 0 -17 8 -31 19 -15 10 -48 30 -74 44 -25 14 -160 92
-300 173 -139 81 -273 158 -298 172 -25 13 -70 39 -100 57 -30 18 -143 83
-250 145 -256 148 -254 147 -297 171 -21 12 -137 79 -258 149 -121 70 -236
137 -255 148 -19 10 -88 50 -153 88 -65 38 -135 78 -155 90 -72 40 -523 301
-957 552 -218 127 -426 238 -490 263 -98 38 -272 83 -364 94 -30 4 -63 9 -75
11 -23 5 -323 13 -328 9z m262 -1010 c8 -2 30 -7 48 -10 79 -13 110 -30 657
-345 88 -51 176 -102 195 -113 19 -10 40 -23 45 -27 6 -4 35 -21 66 -38 31
-17 155 -88 275 -158 121 -70 233 -135 249 -144 17 -9 104 -60 195 -112 91
-53 253 -146 360 -208 107 -62 254 -147 325 -188 72 -42 189 -109 260 -150 72
-41 157 -91 190 -110 33 -19 74 -42 90 -52 17 -9 219 -126 450 -260 231 -133
436 -252 455 -262 53 -30 223 -128 240 -138 8 -5 80 -46 159 -92 79 -46 160
-93 180 -105 20 -12 47 -28 61 -36 14 -7 131 -74 260 -149 129 -75 251 -144
270 -155 45 -25 403 -234 450 -262 19 -11 42 -24 50 -27 20 -9 100 -73 125
-99 108 -116 187 -256 223 -397 19 -73 19 -116 20 -997 0 -507 -4 -921 -9
-921 -8 0 -70 35 -524 298 -137 79 -266 154 -285 164 -19 11 -107 62 -195 113
-88 51 -180 103 -205 117 -213 116 -497 144 -750 75 -98 -28 -262 -106 -352
-168 -14 -11 -29 -19 -33 -19 -3 0 -29 -15 -58 -33 -29 -18 -63 -38 -77 -45
-14 -7 -38 -20 -55 -30 -30 -19 -186 -109 -430 -250 -71 -41 -188 -108 -258
-149 -71 -41 -130 -73 -133 -71 -2 2 -4 303 -5 669 -2 741 -3 757 -70 926 -71
179 -217 370 -349 457 -87 56 -217 136 -224 136 -2 0 -92 52 -201 115 -108 63
-199 115 -201 115 -2 0 -47 26 -101 58 -54 33 -132 78 -173 102 -41 24 -77 44
-79 46 -2 2 8 49 23 106 36 143 41 183 41 348 0 131 -4 186 -19 260 -3 14 -8
39 -12 55 -12 60 -66 209 -101 279 -168 334 -447 577 -797 691 -56 18 -135 38
-176 45 -41 6 -86 14 -100 16 -37 7 -240 7 -280 0 -19 -3 -51 -8 -70 -10 -57
-8 -196 -43 -219 -55 -11 -7 -21 -10 -21 -7 0 19 -314 -147 -350 -184 -3 -3
-27 -23 -55 -45 -182 -144 -348 -382 -424 -610 -30 -92 -32 -99 -50 -195 -21
-115 -29 -287 -17 -370 2 -14 7 -48 10 -75 4 -28 12 -68 18 -90 5 -22 12 -48
14 -59 2 -10 9 -34 15 -53 9 -28 8 -38 -2 -47 -8 -7 -111 -68 -229 -136 -118
-68 -269 -155 -335 -193 -66 -38 -149 -86 -185 -107 -217 -126 -248 -147 -335
-235 -50 -49 -109 -118 -132 -152 -68 -102 -143 -274 -158 -365 -3 -18 -8 -46
-12 -63 -4 -16 -8 -700 -9 -1520 -1 -819 -2 -1493 -3 -1496 0 -4 -52 23 -113
60 -62 37 -144 85 -183 106 -38 21 -81 45 -95 55 -14 9 -50 30 -80 47 -30 16
-154 87 -275 158 -121 70 -240 139 -265 153 -25 13 -70 39 -100 57 -151 89
-231 122 -367 150 -84 16 -265 22 -338 10 -181 -29 -265 -64 -550 -230 -242
-140 -270 -156 -318 -183 -29 -17 -259 -150 -447 -259 -41 -24 -82 -48 -90
-53 -8 -6 -26 -15 -39 -20 -13 -6 -36 -19 -51 -30 -16 -11 -33 -20 -38 -20 -6
0 -10 602 -10 1743 0 1637 1 1746 18 1812 36 143 127 301 231 405 43 43 114
90 291 193 302 175 947 547 973 561 11 6 27 16 35 22 8 7 39 25 68 40 29 16
61 34 70 39 41 24 180 104 212 123 47 26 360 207 1000 577 115 67 210 121 775
447 110 64 216 124 235 135 19 11 116 67 215 125 99 57 225 130 280 162 55 31
107 61 115 66 8 5 80 47 160 93 80 46 309 178 510 294 201 116 406 234 455
262 96 55 199 91 280 99 28 2 51 6 53 7 5 5 203 -4 222 -10z m3 -2163 c76 -38
129 -92 166 -171 22 -47 26 -70 26 -141 0 -71 -4 -94 -26 -141 -36 -76 -89
-133 -158 -167 l-58 -29 44 -114 c24 -63 50 -127 57 -144 7 -16 55 -137 107
-269 103 -262 87 -241 214 -310 28 -16 55 -31 60 -36 6 -4 35 -21 65 -37 30
-17 197 -112 370 -213 543 -315 622 -360 631 -360 4 0 11 -6 16 -12 4 -7 8
-1935 9 -4284 l1 -4270 -21 -11 c-24 -12 -622 -357 -706 -407 -30 -18 -84 -50
-120 -70 -36 -20 -72 -41 -80 -46 -8 -6 -71 -42 -140 -81 -69 -40 -163 -94
-209 -121 -136 -78 -257 -107 -434 -102 -101 3 -232 31 -294 62 -21 11 -126
71 -233 132 -107 62 -208 121 -225 130 -16 9 -102 59 -190 110 -88 51 -173
100 -190 110 -187 107 -492 284 -504 293 -15 11 -17 355 -16 4272 0 2343 4
4265 8 4272 6 9 108 72 192 118 22 13 178 103 210 122 11 7 26 15 34 19 8 4
64 36 125 72 127 74 163 95 226 130 25 14 77 44 115 67 39 23 138 81 222 129
104 60 154 94 159 109 3 12 12 36 19 52 7 17 45 113 85 215 40 102 99 250 131
330 l58 145 -28 9 c-47 14 -124 78 -163 136 -94 140 -69 334 57 447 78 71 141
93 252 89 57 -2 85 -9 136 -34z m4487 -3744 c30 -17 67 -39 82 -49 14 -11 28
-19 31 -19 3 0 40 -20 81 -45 42 -25 79 -45 82 -45 3 0 17 -9 32 -19 23 -16
647 -378 722 -419 14 -7 46 -25 71 -40 25 -15 105 -61 176 -102 l131 -75 -2
-1650 -1 -1650 -27 -75 c-68 -190 -177 -344 -302 -429 -22 -15 -120 -73 -216
-128 -96 -55 -189 -109 -207 -119 -17 -11 -62 -37 -100 -58 -73 -42 -1111
-641 -1228 -709 -38 -22 -87 -51 -107 -64 -21 -12 -40 -23 -43 -23 -3 0 -31
-16 -61 -35 -30 -19 -56 -35 -58 -35 -2 0 -124 -70 -272 -156 -148 -86 -287
-166 -309 -178 -22 -13 -85 -49 -140 -81 -272 -158 -267 -155 -281 -144 -12
10 -14 459 -12 2776 l3 2765 95 54 c52 30 102 58 110 63 25 16 368 213 436
252 36 19 70 41 76 47 7 7 15 12 19 12 4 0 34 15 66 34 103 61 497 288 543
314 25 14 99 57 165 95 66 39 131 76 143 83 22 11 34 6 135 -53 62 -36 137
-79 167 -95z m-8915 -1534 c43 -25 168 -97 279 -161 110 -64 215 -124 231
-133 17 -10 174 -101 350 -202 593 -342 710 -410 720 -420 7 -6 10 -675 10
-1963 0 -1075 -1 -1955 -2 -1955 -4 0 -217 122 -253 145 -30 19 -112 66 -234
135 -17 9 -119 68 -226 130 -107 62 -211 122 -230 133 -19 10 -87 49 -150 86
-63 37 -196 114 -295 171 -99 57 -227 131 -285 165 -58 34 -131 76 -163 94
-32 17 -180 103 -330 190 -149 87 -292 169 -317 183 -25 14 -128 74 -230 133
-102 59 -220 127 -263 152 -136 79 -250 214 -322 380 -64 149 -62 123 -63
1012 l0 808 155 89 c86 49 172 98 192 110 78 45 1139 658 1179 681 24 14 65
38 90 53 26 16 55 29 64 29 9 1 51 -19 93 -45z"/>
<path d="M10945 11867 c-16 -5 -35 -14 -42 -19 -7 -6 -117 -72 -245 -148 -128
-76 -245 -148 -261 -160 -61 -48 -61 -49 -62 -459 0 -390 1 -401 42 -401 8 0
141 75 295 167 193 115 289 178 307 202 l26 34 1 383 c2 344 0 384 -15 397
-12 11 -23 12 -46 4z"/>
<path d="M10669 10089 c-219 -131 -290 -178 -309 -206 l-25 -36 0 -384 c0
-401 0 -402 41 -403 6 0 141 78 300 173 246 147 292 178 310 210 20 37 21 50
21 410 1 205 -3 379 -7 387 -5 9 -17 16 -28 17 -11 1 -147 -75 -303 -168z"/>
<path d="M10660 8467 c-230 -139 -288 -179 -305 -207 -19 -33 -20 -53 -20
-417 0 -210 3 -385 7 -388 20 -20 75 6 318 151 146 86 277 167 292 178 54 42
56 60 56 457 0 204 -4 372 -9 382 -6 9 -20 17 -32 16 -12 0 -150 -77 -307
-172z"/>
<path d="M10948 7023 c-10 -3 -18 -9 -18 -14 0 -5 -4 -9 -9 -9 -12 0 -510
-297 -535 -319 -49 -43 -50 -52 -51 -446 -1 -203 2 -378 7 -387 19 -38 24 -36
408 194 90 55 179 110 197 124 60 46 61 53 59 464 -1 361 -2 373 -21 385 -11
6 -28 10 -37 8z"/>
<path d="M10830 5335 c-69 -41 -136 -82 -150 -90 -14 -8 -86 -51 -160 -96 -97
-58 -142 -91 -160 -117 l-24 -37 -1 -370 c-1 -203 2 -380 7 -392 4 -13 16 -23
26 -23 10 0 85 40 167 90 83 49 164 96 180 105 17 8 79 46 140 83 163 100 152
63 152 518 0 313 -2 378 -14 390 -8 8 -20 14 -26 14 -7 0 -68 -34 -137 -75z"/>
<path d="M15320 9402 c-29 -15 -88 -49 -168 -97 -9 -6 -99 -59 -198 -118 -100
-59 -189 -115 -197 -125 -42 -46 -45 -72 -45 -451 0 -346 1 -364 20 -383 19
-19 20 -19 71 10 107 60 483 285 515 309 69 52 67 36 68 456 1 334 -1 381 -15
398 -16 19 -17 19 -51 1z"/>
<path d="M15260 7751 c-215 -123 -477 -284 -501 -307 -14 -14 -30 -40 -36 -58
-13 -44 -14 -744 -1 -770 7 -13 17 -17 37 -13 24 5 491 277 564 329 61 44 62
46 63 458 1 324 -1 377 -14 393 -8 9 -18 17 -21 17 -4 0 -45 -22 -91 -49z"/>
<path d="M6266 7301 c-225 -134 -285 -175 -305 -205 l-25 -39 -1 -379 c0 -360
1 -380 19 -393 16 -12 24 -12 55 5 73 37 527 312 550 333 49 45 51 61 51 451
0 200 -3 371 -6 380 -13 35 -64 12 -338 -153z"/>
</g>
</svg>
