<?xml version="1.0" encoding="UTF-8" standalone="no"?>
<svg width="122px" height="96px" viewBox="0 0 122 96" version="1.1" xmlns="http://www.w3.org/2000/svg" xmlns:xlink="http://www.w3.org/1999/xlink" xmlns:sketch="http://www.bohemiancoding.com/sketch/ns">
    <!-- Generator: Sketch Beta 3.2 (9809) - http://www.bohemiancoding.com/sketch -->
    <title>logo</title>
    <desc>Created with Sketch Beta.</desc>
    <defs></defs>
    <g id="Page-1" stroke="none" stroke-width="1" fill="none" fill-rule="evenodd" sketch:type="MSPage">
        <g id="Group" sketch:type="MSLayerGroup">
            <path d="M1.49065462,73.6962622 L2.12149574,73.6962622 L2.12149574,68.6074771 C2.12149574,68.2289724 2.24766396,67.8925239 2.54205649,67.5981313 C2.83644901,67.3037388 3.17289761,67.1775706 3.55140228,67.1775706 C3.92990695,67.1775706 4.26635555,67.3037388 4.56074807,67.5981313 C4.8551406,67.8925239 4.98130882,68.1869164 4.98130882,68.6074771 L4.98130882,73.6962622 L6.66355181,73.6962622 C7.04205649,73.6962622 7.37850508,73.8224304 7.63084153,74.1168229 C7.88317798,74.4112154 8.05140228,74.705608 8.05140228,75.1261687 C8.05140228,75.5046734 7.92523406,75.841122 7.63084153,76.1355145 C7.37850508,76.429907 7.04205649,76.5560753 6.66355181,76.5560753 L4.98130882,76.5560753 L4.98130882,83.3271033 C4.98130882,85.1355145 5.86448639,86.0186921 7.67289761,86.0186921 C8.05140228,86.0186921 8.38785088,86.1448603 8.64018733,86.4392528 C8.89252378,86.7336453 9.06074807,87.0280379 9.06074807,87.4485986 C9.06074807,87.8271033 8.93457985,88.1635519 8.64018733,88.4579444 C8.38785088,88.7523369 8.05140228,88.8785052 7.67289761,88.8785052 C3.97196303,88.8785052 2.16355181,87.0280379 2.16355181,83.3691594 L2.16355181,76.5560753 L1.53271069,76.5560753 C1.15420602,76.5560753 0.817757421,76.429907 0.565420972,76.1355145 C0.271028449,75.841122 0.144860224,75.5046734 0.144860224,75.1261687 C0.144860224,74.747664 0.271028449,74.4112154 0.565420972,74.1168229 C0.775701346,73.8644865 1.11214994,73.6962622 1.49065462,73.6962622" id="Shape" fill="#333333" sketch:type="MSShapeGroup"></path>
            <path d="M25.0000004,79.8785052 C24.8317761,79.3738323 24.6214957,78.9112154 24.3271032,78.5327108 C24.0327107,78.11215 23.654206,77.7757014 23.2757013,77.4813089 C22.8551406,77.1869164 22.4345799,76.976636 21.971963,76.8084117 C21.5093462,76.6401874 21.0046733,76.5560753 20.5000004,76.5560753 C19.9953275,76.5560753 19.4906546,76.6401874 18.9859817,76.8084117 C18.4813088,76.976636 18.0607481,77.1869164 17.6401873,77.4813089 C17.2196266,77.7757014 16.883178,78.11215 16.5887855,78.5327108 C16.2943929,78.9532715 16.0841126,79.4158883 15.9158883,79.8785052 L25.0000004,79.8785052 L25.0000004,79.8785052 Z M24.3691593,84.5887855 C24.78972,84.5887855 25.1261686,84.7149538 25.3785051,84.9672902 C25.6308415,85.2196267 25.7570098,85.5560753 25.7570098,85.976636 C25.7570098,86.3551407 25.6308415,86.6915893 25.336449,86.9859818 C23.9485985,88.205608 22.3084116,88.8364491 20.3738322,88.8364491 C18.2710284,88.8364491 16.5046733,88.0794397 15.0327107,86.6074771 C13.5607481,85.1355145 12.8037387,83.3271033 12.8037387,81.2663556 C12.8037387,79.1635519 13.5607481,77.3971967 15.0327107,75.9252341 C16.5046733,74.4532715 18.3130845,73.6962622 20.3738322,73.6962622 C22.4345799,73.6962622 24.2429911,74.4532715 25.7149537,75.9252341 C26.471963,76.6401874 27.018692,77.4813089 27.3971967,78.3644865 C27.7757013,79.247664 27.9439256,80.2149538 27.9439256,81.2663556 C27.9439256,81.6869164 27.8177574,82.023365 27.5233649,82.2757014 C27.2289724,82.5280379 26.8925238,82.6542061 26.5140191,82.6542061 L15.8317761,82.6542061 C16.0000004,83.158879 16.2102808,83.6214958 16.5046733,84.0000005 C16.7990658,84.3785052 17.1355144,84.7570098 17.5560752,85.0514024 C17.9766359,85.3457949 18.3971967,85.5560753 18.8598135,85.7242996 C19.3224303,85.8925239 19.8271032,85.976636 20.3738322,85.976636 C20.9626172,85.976636 21.5093462,85.8925239 22.0140191,85.7242996 C22.518692,85.5560753 22.9813088,85.2616827 23.4018696,84.9252341 C23.6962621,84.7149538 24.0327107,84.5887855 24.3691593,84.5887855 L24.3691593,84.5887855 L24.3691593,84.5887855 Z" id="Shape" fill="#333333" sketch:type="MSShapeGroup"></path>
            <path d="M31.9392527,87.4485986 L31.9392527,68.6495332 C31.9392527,68.2710285 32.065421,67.9345799 32.3177574,67.6401874 C32.5700939,67.3457949 32.9065425,67.2196267 33.3271032,67.2196267 C33.747664,67.2196267 34.0841126,67.3457949 34.336449,67.6401874 C34.5887855,67.9345799 34.7149537,68.2710285 34.7149537,68.6495332 L34.7149537,86.0186921 L35.3457948,86.0186921 C35.7242995,86.0186921 36.0607481,86.1448603 36.3551406,86.4392528 C36.6495331,86.7336453 36.7757013,87.0700939 36.7757013,87.4485986 C36.7757013,87.8271033 36.6495331,88.1635519 36.3551406,88.4579444 C36.0607481,88.7523369 35.7663556,88.8785052 35.3457948,88.8785052 L33.2850471,88.8785052 C32.9065425,88.8785052 32.5700939,88.7523369 32.3177574,88.4579444 C32.065421,88.1635519 31.9392527,87.8271033 31.9392527,87.4485986" id="Shape" fill="#333333" sketch:type="MSShapeGroup"></path>
            <path d="M52.5887855,79.8785052 C52.4205612,79.3738323 52.2102808,78.9112154 51.9158883,78.5327108 C51.6214957,78.11215 51.2429911,77.7757014 50.8644864,77.4813089 C50.4439256,77.1869164 50.0233649,76.976636 49.5607481,76.8084117 C49.0981313,76.6401874 48.5934584,76.5560753 48.0887855,76.5560753 C47.5841126,76.5560753 47.0794397,76.6401874 46.5747668,76.8084117 C46.0700939,76.976636 45.6495331,77.1869164 45.2289724,77.4813089 C44.8084116,77.7757014 44.471963,78.11215 44.1775705,78.5327108 C43.883178,78.9532715 43.6728976,79.4158883 43.5046733,79.8785052 L52.5887855,79.8785052 L52.5887855,79.8785052 Z M51.9579443,84.5887855 C52.3785051,84.5887855 52.7149537,84.7149538 52.9672901,84.9672902 C53.2196266,85.2196267 53.3457948,85.5560753 53.3457948,85.976636 C53.3457948,86.3551407 53.2196266,86.6915893 52.9252341,86.9859818 C51.5373836,88.205608 49.8971967,88.8364491 47.9626172,88.8364491 C45.8598135,88.8364491 44.0934584,88.0794397 42.6214957,86.6074771 C41.1495331,85.1355145 40.3925238,83.3271033 40.3925238,81.2663556 C40.3925238,79.1635519 41.1495331,77.3971967 42.6214957,75.9252341 C44.0934584,74.4532715 45.9018696,73.6962622 47.9626172,73.6962622 C50.0233649,73.6962622 51.8317761,74.4532715 53.3037387,75.9252341 C54.0607481,76.6401874 54.607477,77.4813089 54.9859817,78.3644865 C55.3644864,79.247664 55.5327107,80.2149538 55.5327107,81.2663556 C55.5327107,81.6869164 55.4065425,82.023365 55.1121499,82.2757014 C54.8177574,82.5280379 54.4813088,82.6542061 54.1028041,82.6542061 L43.4205612,82.6542061 C43.5887855,83.158879 43.7990658,83.6214958 44.0934584,84.0000005 C44.3878509,84.3785052 44.7242995,84.7570098 45.1448602,85.0514024 C45.565421,85.3457949 45.9859817,85.5560753 46.4485985,85.7242996 C46.9112154,85.8925239 47.4158883,85.976636 47.9626172,85.976636 C48.5514023,85.976636 49.0981313,85.8925239 49.6028041,85.7242996 C50.107477,85.5560753 50.5700939,85.2616827 50.9906546,84.9252341 C51.2850471,84.7149538 51.6214957,84.5887855 51.9579443,84.5887855 L51.9579443,84.5887855 L51.9579443,84.5887855 Z" id="Shape" fill="#333333" sketch:type="MSShapeGroup"></path>
            <path d="M62.471963,81.2663556 C62.471963,81.8971967 62.5981313,82.5280379 62.8504677,83.1168229 C63.1028041,83.705608 63.4392527,84.2102809 63.8598135,84.6308416 C64.2803742,85.0514024 64.7850471,85.387851 65.3738322,85.6401874 C65.9626172,85.8925239 66.5514023,86.0186921 67.2242995,86.0186921 C67.8971967,86.0186921 68.4859817,85.8925239 69.0747668,85.6401874 C69.6635518,85.387851 70.1682247,85.0514024 70.5887855,84.6308416 C71.0093462,84.2102809 71.3457948,83.705608 71.5981313,83.1168229 C71.8504677,82.5280379 71.9766359,81.9392528 71.9766359,81.2663556 C71.9766359,80.6355145 71.8504677,80.0046734 71.5981313,79.4158883 C71.3457948,78.8271033 71.0093462,78.3224304 70.5887855,77.9018696 C70.1682247,77.4813089 69.6635518,77.1448603 69.0747668,76.8925239 C68.4859817,76.6401874 67.8971967,76.5140192 67.2242995,76.5140192 C66.5514023,76.5140192 65.9205612,76.6401874 65.3738322,76.8925239 C64.7850471,77.1448603 64.2803742,77.4813089 63.8598135,77.9018696 C63.4392527,78.3224304 63.1028041,78.8271033 62.8504677,79.4158883 C62.5981313,80.0046734 62.471963,80.6355145 62.471963,81.2663556 M67.2242995,88.8364491 C65.4158883,88.8364491 63.8177574,88.2897201 62.471963,87.1542061 L62.471963,93.8831781 C62.471963,94.3037388 62.3457948,94.6401874 62.0514023,94.8925239 C61.7570098,95.1448603 61.4205612,95.2710285 61.0420565,95.2710285 C60.6214957,95.2710285 60.2850471,95.1448603 60.0327107,94.8925239 C59.7803742,94.6401874 59.654206,94.3037388 59.654206,93.8831781 L59.654206,81.2242996 C59.654206,79.1214958 60.4112154,77.3551407 61.883178,75.8831781 C63.3551406,74.4112154 65.1635518,73.6542061 67.2242995,73.6542061 C69.2850471,73.6542061 71.0934584,74.4112154 72.565421,75.8831781 C73.3224303,76.5981313 73.8691593,77.4392528 74.247664,78.3224304 C74.6261686,79.205608 74.7943929,80.1728977 74.7943929,81.2242996 C74.7943929,83.3271033 74.0373836,85.1355145 72.565421,86.565421 C71.8084116,87.3224304 70.9672901,87.8691594 70.0841126,88.247664 C69.200935,88.6682248 68.2336453,88.8364491 67.2242995,88.8364491" id="Shape" fill="#333333" sketch:type="MSShapeGroup"></path>
            <path d="M93.971963,81.2663556 C93.971963,83.3691594 93.2149537,85.1775706 91.7429911,86.6074771 C90.2289724,88.0794397 88.4626172,88.8364491 86.4018696,88.8364491 C84.2990658,88.8364491 82.5327107,88.0794397 81.0607481,86.6074771 C79.5887855,85.1355145 78.8317761,83.3271033 78.8317761,81.2663556 C78.8317761,79.1635519 79.5887855,77.3971967 81.0607481,75.9252341 C82.5327107,74.4532715 84.3411219,73.6962622 86.4018696,73.6962622 C88.4626172,73.6962622 90.2710284,74.4532715 91.7429911,75.9252341 C92.5000004,76.6822435 93.0467294,77.4813089 93.383178,78.3644865 C93.8037387,79.247664 93.971963,80.2149538 93.971963,81.2663556 M86.4018696,76.5560753 C85.7289724,76.5560753 85.0981313,76.6822435 84.5514023,76.9345799 C83.9626172,77.1869164 83.4579443,77.523365 83.0373836,77.9439257 C82.6168228,78.3644865 82.2803742,78.8691594 82.0280378,79.4579444 C81.7757013,80.0467295 81.6495331,80.6355145 81.6495331,81.3084117 C81.6495331,81.9813089 81.7757013,82.5700939 82.0280378,83.158879 C82.2803742,83.747664 82.6168228,84.2523369 83.0373836,84.6728977 C83.4579443,85.0934584 83.9626172,85.429907 84.5514023,85.6822435 C85.1401873,85.9345799 85.7289724,86.0607481 86.4018696,86.0607481 C87.0747668,86.0607481 87.6635518,85.9345799 88.2523369,85.6822435 C88.8411219,85.429907 89.3457948,85.0934584 89.7663556,84.6728977 C90.1869163,84.2523369 90.5233649,83.747664 90.7757013,83.158879 C91.0280378,82.5700939 91.154206,81.9813089 91.154206,81.3084117 C91.154206,80.6775706 91.0280378,80.0467295 90.7757013,79.4579444 C90.5233649,78.8691594 90.1869163,78.3644865 89.7663556,77.9439257 C89.3457948,77.523365 88.8411219,77.1869164 88.2523369,76.9345799 C87.7056079,76.6822435 87.0747668,76.5560753 86.4018696,76.5560753" id="Shape" fill="#333333" sketch:type="MSShapeGroup"></path>
            <path d="M100.827103,75.1261687 L100.827103,75.3785052 C101.5,74.8317762 102.25701,74.4112154 103.014019,74.1168229 C103.813085,73.8224304 104.654206,73.6962622 105.537384,73.6962622 C105.915888,73.6962622 106.378505,73.7383182 106.799066,73.7803743 C107.261683,73.8224304 107.682243,73.9485986 108.060748,74.0747668 C108.439253,74.2009351 108.775701,74.4112154 109.028038,74.6635519 C109.280374,74.9158883 109.406542,75.2102809 109.406542,75.5887855 C109.406542,75.7990659 109.364486,75.9672902 109.280374,76.1355145 C109.196262,76.3037388 109.11215,76.4719631 108.985982,76.5981313 C108.859813,76.7242996 108.691589,76.8504678 108.523365,76.8925239 C108.355141,76.976636 108.186916,77.0186921 107.976636,77.0186921 C107.808412,77.0186921 107.598131,76.976636 107.387851,76.8504678 C106.841122,76.6401874 106.210281,76.5140192 105.537384,76.5140192 C104.864486,76.5140192 104.275701,76.6401874 103.686916,76.8925239 C103.098131,77.1448603 102.593458,77.4813089 102.172898,77.9018696 C101.752337,78.3224304 101.415888,78.8271033 101.163552,79.4158883 C100.911215,80.0046734 100.785047,80.5934584 100.785047,81.2663556 L100.785047,87.4065425 C100.785047,87.7850472 100.658879,88.1214958 100.364486,88.4158883 C100.070094,88.7102809 99.7757013,88.8364491 99.3551406,88.8364491 C98.9766359,88.8364491 98.6401873,88.7102809 98.3457948,88.4158883 C98.0514023,88.1214958 97.9252341,87.8271033 97.9252341,87.4065425 L97.9252341,75.0841126 C97.9252341,74.705608 98.0514023,74.3691594 98.3457948,74.0747668 C98.6401873,73.7803743 98.9766359,73.6542061 99.3551406,73.6542061 C99.7336453,73.6542061 100.070094,73.7803743 100.364486,74.0747668 C100.700935,74.4112154 100.827103,74.747664 100.827103,75.1261687" id="Shape" fill="#333333" sketch:type="MSShapeGroup"></path>
            <path d="M114.242991,73.6962622 L114.873832,73.6962622 L114.873832,68.6074771 C114.873832,68.2289724 115,67.8925239 115.294393,67.5981313 C115.588785,67.3037388 115.925234,67.1775706 116.303739,67.1775706 C116.682243,67.1775706 117.018692,67.3037388 117.313085,67.5981313 C117.607477,67.8925239 117.733645,68.1869164 117.733645,68.6074771 L117.733645,73.6962622 L119.415888,73.6962622 C119.794393,73.6962622 120.130842,73.8224304 120.383178,74.1168229 C120.635514,74.4112154 120.803739,74.705608 120.803739,75.1261687 C120.803739,75.5046734 120.677571,75.841122 120.383178,76.1355145 C120.130842,76.429907 119.794393,76.5560753 119.415888,76.5560753 L117.733645,76.5560753 L117.733645,83.3271033 C117.733645,85.1355145 118.616823,86.0186921 120.425234,86.0186921 C120.803739,86.0186921 121.140187,86.1448603 121.392524,86.4392528 C121.64486,86.7336453 121.813085,87.0280379 121.813085,87.4485986 C121.813085,87.8271033 121.686916,88.1635519 121.392524,88.4579444 C121.140187,88.7523369 120.803739,88.8785052 120.425234,88.8785052 C116.724299,88.8785052 114.915888,87.0280379 114.915888,83.3691594 L114.915888,76.5560753 L114.285047,76.5560753 C113.906542,76.5560753 113.570094,76.429907 113.317757,76.1355145 C113.023365,75.841122 112.897197,75.5046734 112.897197,75.1261687 C112.897197,74.747664 113.023365,74.4112154 113.317757,74.1168229 C113.528038,73.8644865 113.864486,73.6962622 114.242991,73.6962622" id="Shape" fill="#333333" sketch:type="MSShapeGroup"></path>
            <g transform="translate(52.850468, 61.878505)" sketch:type="MSShapeGroup">
                <g>
                    <rect id="Rectangle-path" x="1" y="0" width="14.4252336" height="4.03738318"></rect>
                    <path d="M15.2990654,2.06074766 C15.2990654,3.15420561 12.0607477,4.07943925 8.10747664,4.07943925 C4.11214953,4.07943925 0.91588785,3.19626168 0.873831776,2.06074766 L0.873831776,2.06074766 C0.873831776,0.96728972 4.11214953,0.0420560748 8.06542056,0.0420560748 C12.0607477,0.0420560748 15.2990654,0.96728972 15.2990654,2.06074766 L15.2990654,2.06074766 L15.2990654,2.06074766 Z" id="Shape" fill="#C0BEBB"></path>
                </g>
            </g>
            <path d="M67.6869163,1.61215002 C72.018692,3.12616871 75.8457948,6.02803787 78.2850471,10.3177575 C80.0514023,13.3457949 80.9345799,16.7523369 80.9345799,20.1168229 C80.9345799,20.158879 80.8925238,20.2429911 80.8925238,20.2850472 C80.8925238,23.6915893 80.0093462,27.0981313 78.2850471,30.1261687 L78.2850471,30.1261687 C78.2429911,30.1682248 78.200935,30.2102809 78.200935,30.2523369 C78.200935,30.2523369 78.200935,30.2523369 78.200935,30.294393 L64.8691593,53.4252341 L71.5560752,31.429907 L71.5560752,31.387851 L71.5981313,31.3457949 C71.6401873,31.3037388 71.6401873,31.2196267 71.6822434,31.1775706 L71.6822434,31.1775706 C72.6915892,27.8551407 73.1962621,24.1542061 73.2383182,20.4953276 L73.2383182,20.4532715 C73.2383182,20.4112154 73.2803742,20.3691594 73.2803742,20.2850472 L73.2803742,20.2850472 C73.2803742,16.5420566 72.7757013,12.7570098 71.7242995,9.39252385 C70.7149537,6.15420609 69.3271032,3.54672946 67.6869163,1.61215002 L67.6869163,1.61215002 L67.6869163,1.61215002 Z" id="Shape" fill="#C163A0" sketch:type="MSShapeGroup"></path>
            <path d="M62.0934584,0.56074815 L62.0934584,11.747664 L62.0934584,28.9485986 L62.0934584,54.9813089 L69.5373836,30.6308416 L69.5373836,30.5887855 C69.5373836,30.5467295 69.5794397,30.5467295 69.5794397,30.5046734 L69.5794397,30.5046734 C70.5046733,27.3925239 71.0093462,23.9018696 71.0093462,20.4112154 L71.0093462,20.3691594 L71.0093462,20.2850472 L71.0093462,20.2429911 C71.0093462,16.7523369 70.5046733,13.2616827 69.5794397,10.1495332 C68.5700939,6.86915936 67.1822434,4.38785095 65.6682247,2.78972011 C64.4906546,1.44392572 63.2710284,0.813084598 62.0934584,0.56074815 L62.0934584,0.56074815 L62.0934584,0.56074815 Z" id="Shape" fill="#56C0D1" sketch:type="MSShapeGroup"></path>
            <path d="M59.7803742,0.56074815 C58.5607481,0.855140673 57.383178,1.48598179 56.2056079,2.70560796 C54.6915892,4.34579488 53.3037387,6.82710329 52.2943929,10.065421 C51.3691593,13.1775706 50.8644864,16.6682248 50.8644864,20.158879 L50.8644864,20.158879 L50.8644864,20.2850472 C50.8644864,23.7757014 51.3271032,27.2663556 52.2943929,30.4205612 C52.2943929,30.4626173 52.336449,30.5046734 52.336449,30.5467295 L59.7803742,54.9392528 L59.7803742,28.9065425 L59.7803742,11.705608 L59.7803742,0.56074815 L59.7803742,0.56074815 Z" id="Shape" fill="#E4BF41" sketch:type="MSShapeGroup"></path>
            <path d="M54.1869163,1.61215002 C52.5467294,3.54672946 51.1588789,6.15420609 50.1495331,9.39252385 C49.0981313,12.7990659 48.5934584,16.5420566 48.5934584,20.2850472 L48.5934584,20.2850472 C48.5934584,20.3691594 48.6355144,20.4112154 48.6355144,20.4532715 C48.6355144,20.4532715 48.6355144,20.4532715 48.6355144,20.4953276 C48.6355144,24.1542061 49.1401873,27.8551407 50.1495331,31.1775706 C50.1495331,31.2196267 50.1915892,31.2616827 50.2336453,31.3457949 C50.2336453,31.387851 50.2336453,31.429907 50.2757013,31.429907 L56.9205612,53.2990659 L43.6308415,30.3364491 C43.5887855,30.294393 43.5467294,30.2102809 43.5046733,30.1682248 C43.5046733,30.1682248 43.5046733,30.1682248 43.5046733,30.1261687 C41.7803742,27.0560753 40.9392527,23.6915893 40.9392527,20.3271033 L40.9392527,20.2009351 C40.9813088,16.794393 41.8224303,13.429907 43.5887855,10.3598136 C46.0280378,6.02803787 49.8551406,3.12616871 54.1869163,1.61215002 L54.1869163,1.61215002 L54.1869163,1.61215002 Z" id="Shape" fill="#DA583F" sketch:type="MSShapeGroup"></path>
        </g>
    </g>
</svg>